<svg width="161" height="37" viewBox="0 0 161 37" fill="none" xmlns="http://www.w3.org/2000/svg">
<g opacity="0.6">
<path d="M29.2574 7.18896C23.7516 7.18896 20.2413 10.9473 20.2413 16.1687C20.2413 21.669 23.7185 25.3247 29.5662 25.3247C32.146 25.3247 35.0721 24.4191 36.8604 22.5389L34.1789 19.8642C33.2153 20.8745 31.1846 21.4657 29.6366 21.4657C26.6776 21.4657 24.854 19.9355 24.5784 17.8121H37.826C38.4808 10.7377 34.9353 7.18896 29.2574 7.18896ZM24.6468 14.2885C25.2685 12.0603 27.1335 10.9473 29.3962 10.9473C31.8041 10.9473 33.5241 12.0603 33.7997 14.2885H24.6468Z" fill="#121212"/>
<path d="M46.5484 21.4964C45.4124 21.4964 44.6365 20.6976 44.6365 19.0643V11.6674H48.732V8.0202H44.6653V3.15796L41.018 3.60967V19.0664C41.018 23.3389 43.1117 25.4573 46.3107 25.3172C47.3478 25.3003 48.3725 25.0532 49.3297 24.5895L48.3126 20.9757C47.7649 21.2987 47.1623 21.4765 46.5484 21.4964Z" fill="#121212"/>
<path d="M79.3395 7.18896C77.5725 7.18896 75.7692 7.49275 74.4258 9.55807L74.1085 7.62527H70.1124V24.3171H74.4258V15.5175C74.4258 12.4369 76.5122 11.2849 78.7753 11.2849C80.189 11.2849 80.7894 11.4542 81.6729 12.1657L83.6188 8.57535C82.663 7.66197 81.1428 7.18896 79.3395 7.18896Z" fill="#121212"/>
<path d="M91.3561 7.18896C85.949 7.18896 82.5757 11.2814 82.5757 16.2557C82.5757 21.2683 85.8806 25.3247 91.3892 25.3247C96.8979 25.3247 100.238 21.2683 100.238 16.2557C100.238 11.2814 96.761 7.18896 91.3561 7.18896ZM91.3892 21.3724C88.325 21.3724 86.7762 18.9033 86.7762 16.2557C86.7762 13.6464 88.3602 11.1051 91.3892 11.1051C94.213 11.1051 96.0044 13.6549 96.0044 16.2557C96.0044 18.9033 94.4536 21.3724 91.3892 21.3724Z" fill="#121212"/>
<path d="M115.599 16.8166C115.599 19.3803 113.755 21.5343 111.039 21.5343C108.206 21.5343 106.733 19.5863 106.733 17.0205V8.19495H102.317V17.0494C102.317 22.2817 105.429 25.3231 109.701 25.3231C112.196 25.3231 113.899 24.4994 115.745 22.7944L116.035 25.0842H119.979V8.19495H115.599V16.8166Z" fill="#121212"/>
<path d="M132.155 8.19495C129.91 8.19495 128.102 8.99942 126.293 10.5774L126.003 8.41981H122.058V24.3156H126.437V16.2029C126.437 13.7875 128.283 11.7598 130.996 11.7598C133.829 11.7598 135.305 13.5956 135.305 16.0091V24.3156H139.721V15.98C139.721 10.9961 136.354 8.19495 132.155 8.19495Z" fill="#121212"/>
<path d="M156 0.135254V9.82131C154.93 8.01145 151.941 7.01357 150.021 7.01357C144.708 7.01357 140.76 10.1376 140.76 16.1697C140.76 21.9176 144.782 25.3236 150.132 25.3236C152.355 25.3236 154.596 24.6143 156 22.5202L156.294 24.9348H160.5V0.135254H156ZM150.421 21.33C147.544 21.33 145.254 19.2359 145.254 16.1846C145.254 13.0265 147.544 11.0756 150.421 11.0756C151.12 11.0642 151.814 11.1888 152.463 11.4419C153.11 11.6951 153.699 12.0715 154.192 12.5487C154.685 13.0259 155.072 13.5939 155.331 14.2187C155.59 14.8436 155.715 15.5123 155.699 16.1846C155.705 19.3321 153.269 21.33 150.421 21.33Z" fill="#121212"/>
<path d="M29.2574 7.18896C23.7516 7.18896 20.2413 10.9473 20.2413 16.1687C20.2413 21.669 23.7185 25.3247 29.5662 25.3247C32.146 25.3247 35.0721 24.4191 36.8604 22.5389L34.1789 19.8642C33.2153 20.8745 31.1846 21.4657 29.6366 21.4657C26.6776 21.4657 24.854 19.9355 24.5784 17.8121H37.826C38.4808 10.7377 34.9353 7.18896 29.2574 7.18896ZM24.6468 14.2885C25.2685 12.0603 27.1335 10.9473 29.3962 10.9473C31.8041 10.9473 33.5241 12.0603 33.7997 14.2885H24.6468Z" fill="#121212"/>
<path d="M46.5484 21.4964C45.4124 21.4964 44.6365 20.6976 44.6365 19.0643V11.6674H48.732V8.0202H44.6653V3.15796L41.018 3.60967V19.0664C41.018 23.3389 43.1117 25.4573 46.3107 25.3172C47.3478 25.3003 48.3725 25.0532 49.3297 24.5895L48.3126 20.9757C47.7649 21.2987 47.1623 21.4765 46.5484 21.4964Z" fill="#121212"/>
<path d="M79.3395 7.18896C77.5725 7.18896 75.7692 7.49275 74.4258 9.55807L74.1085 7.62527H70.1124V24.3171H74.4258V15.5175C74.4258 12.4369 76.5122 11.2849 78.7753 11.2849C80.189 11.2849 80.7894 11.4542 81.6729 12.1657L83.6188 8.57535C82.663 7.66197 81.1428 7.18896 79.3395 7.18896Z" fill="#121212"/>
<path d="M91.3561 7.18896C85.949 7.18896 82.5757 11.2814 82.5757 16.2557C82.5757 21.2683 85.8806 25.3247 91.3892 25.3247C96.8979 25.3247 100.238 21.2683 100.238 16.2557C100.238 11.2814 96.761 7.18896 91.3561 7.18896ZM91.3892 21.3724C88.325 21.3724 86.7762 18.9033 86.7762 16.2557C86.7762 13.6464 88.3602 11.1051 91.3892 11.1051C94.213 11.1051 96.0044 13.6549 96.0044 16.2557C96.0044 18.9033 94.4536 21.3724 91.3892 21.3724Z" fill="#121212"/>
<path d="M115.599 16.8166C115.599 19.3803 113.755 21.5343 111.039 21.5343C108.206 21.5343 106.733 19.5863 106.733 17.0205V8.19495H102.317V17.0494C102.317 22.2817 105.429 25.3231 109.701 25.3231C112.196 25.3231 113.899 24.4994 115.745 22.7944L116.035 25.0842H119.979V8.19495H115.599V16.8166Z" fill="#121212"/>
<path d="M132.155 8.19495C129.91 8.19495 128.102 8.99942 126.293 10.5774L126.003 8.41981H122.058V24.3156H126.437V16.2029C126.437 13.7875 128.283 11.7598 130.996 11.7598C133.829 11.7598 135.305 13.5956 135.305 16.0091V24.3156H139.721V15.98C139.721 10.9961 136.354 8.19495 132.155 8.19495Z" fill="#121212"/>
<path d="M156 0.135254V9.82131C154.93 8.01145 151.941 7.01357 150.021 7.01357C144.708 7.01357 140.76 10.1376 140.76 16.1697C140.76 21.9176 144.782 25.3236 150.132 25.3236C152.355 25.3236 154.596 24.6143 156 22.5202L156.294 24.9348H160.5V0.135254H156ZM150.421 21.33C147.544 21.33 145.254 19.2359 145.254 16.1846C145.254 13.0265 147.544 11.0756 150.421 11.0756C151.12 11.0642 151.814 11.1888 152.463 11.4419C153.11 11.6951 153.699 12.0715 154.192 12.5487C154.685 13.0259 155.072 13.5939 155.331 14.2187C155.59 14.8436 155.715 15.5123 155.699 16.1846C155.705 19.3321 153.269 21.33 150.421 21.33Z" fill="#121212"/>
<path d="M64.1922 8.18021C62.2262 7.04282 58.2902 6.95888 56.1593 7.55066C53.4648 8.31451 51.8204 10.4382 51.6942 13.0907L55.6017 14.0119C55.913 11.9889 56.4991 11.3112 58.1681 11.0342C59.3891 10.8243 61.1129 10.8705 62.0654 11.8735C62.5926 12.4317 62.6495 12.6941 62.5681 13.6069C62.5294 14.0414 61.6787 14.1861 61.174 14.2994C59.3423 14.7192 56.4748 14.929 54.6756 15.4369C51.1284 16.4399 50.6338 20.8677 52.4105 23.1509C54.2422 25.5096 58.8457 26.0384 61.4284 24.2945C61.8191 24.0302 62.1956 23.7426 62.6882 23.3839V25.029H66.9356V20.6222C66.9478 18.0095 67.0495 15.3948 66.9559 12.7885C66.9306 11.8372 66.6617 10.9097 66.1763 10.1003C65.6909 9.29093 65.0063 8.62845 64.1922 8.18021ZM60.9582 21.1153C60.4124 21.42 59.8207 21.6279 59.2081 21.7302C58.4346 21.8833 57.6307 22.0239 56.8615 21.8519C56.3241 21.7302 55.7848 21.4615 55.502 20.9747C55.3359 20.6854 55.2579 20.3513 55.2781 20.0158C55.2964 19.6911 55.4172 19.3815 55.6221 19.1343C55.8562 18.8382 56.1624 18.6115 56.5094 18.4775C57.588 17.9885 58.7827 17.8479 59.9549 17.722L61.8781 17.5122L62.3604 17.4576L62.5905 17.4325C62.678 17.4325 62.7023 17.4156 62.7044 17.5038C62.7058 17.801 62.684 18.0979 62.6393 18.3915C62.6042 18.6821 62.5359 18.9674 62.4358 19.2414C62.1847 20.0328 61.6584 20.7004 60.9582 21.1153Z" fill="#121212"/>
<path d="M9.51814 25.0061C3.88234 25.0061 0.5 21.0185 0.5 16.0976C0.5 11.21 3.95236 7.18896 9.4842 7.18896H20.2402C20.2402 7.18896 19.7798 9.97616 17.0913 11.0388H9.54149C6.44137 11.0367 4.80325 13.5317 4.80325 16.0913C4.80325 18.6906 6.39044 21.1166 9.52452 21.1166C12.6586 21.1166 14.2457 18.6906 14.2457 16.0913C14.252 14.6889 13.6998 13.3399 12.7074 12.3333H17.7999C18.3186 13.5201 18.5837 14.7994 18.5788 16.0913C18.5788 18.8973 17.4647 21.3984 15.4659 23.031C17.9485 24.4758 18.5788 26.4446 18.5788 28.5387C18.5788 33.4032 14.7975 36.4075 9.6009 36.4075C4.73746 36.4075 1.02199 33.683 0.563657 29.4365L4.93905 28.975C5.19367 31.0168 7.22223 32.3301 9.60726 32.3301C12.1536 32.3301 14.1503 30.971 14.1503 28.5387C14.1503 26.1065 11.8289 25.0019 9.61364 24.9894L9.51814 25.0061Z" fill="#121212"/>
</g>
</svg>
