<svg width="129" height="54" viewBox="0 0 129 54" fill="none" xmlns="http://www.w3.org/2000/svg">
<g opacity="0.6">
<path d="M30.7843 0V14.4743H6.53229V0H0.5V20.2617H36.8411V0H30.7843Z" fill="#121212"/>
<path d="M30.7843 33.2684H0.5V53.5302H6.53229V39.0676H30.7597V53.5302H36.8166V33.2684H30.7843Z" fill="#121212"/>
<path d="M47.5024 36.0633V17.4802H51.5322V24.5237H59.0756V17.4802H63.1053V36.0633H59.0879V27.8459H51.5444V36.0633H47.5024Z" fill="#121212"/>
<path d="M70.4132 22.3044C70.5483 23.5957 70.1183 31.3201 70.708 32.3414C71.4943 34.0201 74.7746 33.5153 75.3275 31.907C76.04 30.6392 75.5732 23.8188 75.696 22.3044H79.5046V36.0627H75.8189V34.0905C74.1849 37.0722 68.4475 37.1074 67.1452 34.0905C66.0395 32.2005 66.7029 24.5701 66.5309 22.2574L70.4132 22.3044Z" fill="#121212"/>
<path d="M95.4548 23.9598C100.369 29.6063 93.5504 41.5685 86.7688 34.302V36.0629H83.0831V17.5033H86.8424V24.1007C88.6361 21.2363 93.5014 21.4124 95.4548 23.9598ZM92.322 32.3298C95.1231 28.585 90.7493 21.6707 87.1127 26.9298C85.405 30.1816 88.5748 36.0629 92.322 32.3181V32.3298Z" fill="#121212"/>
<path d="M103.593 20.6726H99.7962V17.3622H103.593V20.6726ZM99.7839 22.3044H103.593V36.0626H99.7962L99.7839 22.3044Z" fill="#121212"/>
<path d="M110.956 36.0633H107.27V17.4802H110.956V36.0633Z" fill="#121212"/>
<path d="M126.631 34.3495C119.174 41.0877 109.505 31.579 115.575 24.0425C123.032 17.2103 132.713 26.8716 126.631 34.3495ZM123.621 32.3655C126.3 29.0434 122.946 21.9882 118.56 26.0147C115.882 29.3251 119.273 36.4155 123.634 32.3655H123.621Z" fill="#121212"/>
</g>
</svg>
