<svg width="188" height="42" viewBox="0 0 188 42" fill="none" xmlns="http://www.w3.org/2000/svg">
<g opacity="0.6">
<path d="M134.558 13.5406C134.231 13.5254 133.951 13.5124 133.703 13.5124C132.614 13.497 131.545 13.8201 130.641 14.4386C129.751 15.0372 129.086 15.9247 128.755 16.9566H128.556V13.8102H124.894V33.6235H128.69V21.5229C128.677 20.7255 128.88 19.9398 129.281 19.2536C129.679 18.5674 130.26 18.0077 130.954 17.6372C131.692 17.2449 132.515 17.0474 133.347 17.0631C133.737 17.0625 134.126 17.0902 134.511 17.1457C134.786 17.1786 135.058 17.2281 135.326 17.2937V13.5971C135.129 13.5797 134.883 13.5559 134.558 13.5406Z" fill="#121212"/>
<path d="M141.576 6.82599C141.115 6.39134 140.51 6.14978 139.882 6.14978C139.254 6.14978 138.649 6.39134 138.188 6.82599C137.967 7.03256 137.79 7.28372 137.669 7.56352C137.548 7.84333 137.484 8.14569 137.484 8.45137C137.484 8.75706 137.548 9.05941 137.669 9.33923C137.79 9.61904 137.967 9.87021 138.188 10.0768C138.648 10.5128 139.254 10.7553 139.882 10.7553C140.512 10.7553 141.117 10.5128 141.576 10.0768C141.799 9.87021 141.975 9.61904 142.096 9.33923C142.218 9.05941 142.28 8.75706 142.28 8.45137C142.28 8.14569 142.218 7.84333 142.096 7.56352C141.975 7.28372 141.799 7.03256 141.576 6.82599ZM137.966 13.8102V33.6235H141.761V13.8102H137.966Z" fill="#121212"/>
<path d="M150.167 30.2684V30.0879L160.319 16.6218V13.8103H145.374V17.1653H155.585V17.3436L145.031 30.9795V33.6236H160.676V30.2684H150.167Z" fill="#121212"/>
<path d="M63.5007 7.20422V26.6044H63.2568L50.0374 7.20422H46.4117V33.6234H50.3304V14.2515H50.5721L63.7808 33.6234H67.3851V7.20422H63.5007Z" fill="#121212"/>
<path d="M88.6005 18.4135C87.8638 16.923 86.7219 15.6785 85.3106 14.8279C83.9003 13.9769 82.2475 13.5515 80.3523 13.5515C78.457 13.5515 76.8042 13.9769 75.3939 14.8279C73.9823 15.679 72.84 16.9233 72.1019 18.4135C71.3205 19.953 70.9318 21.7511 70.9361 23.8082C70.9403 25.8652 71.329 27.654 72.1019 29.1746C72.8411 30.6601 73.9837 31.899 75.3939 32.7451C76.8085 33.5959 78.4613 34.0214 80.3523 34.0214C82.2432 34.0214 83.896 33.5959 85.3106 32.7451C86.7207 31.8994 87.8625 30.6602 88.6005 29.1746C89.3877 27.6438 89.7813 25.855 89.7813 23.8082C89.7813 21.7613 89.3877 19.963 88.6005 18.4135ZM85.3642 27.2916C84.997 28.299 84.3562 29.1797 83.5159 29.8314C82.6817 30.4662 81.6315 30.7837 80.3651 30.7837C79.0988 30.7837 78.0427 30.4662 77.1971 29.8314C76.3531 29.1816 75.709 28.3006 75.3405 27.2916C74.5332 25.0351 74.5332 22.5617 75.3405 20.3052C75.7088 19.2908 76.3527 18.4033 77.1971 17.7459C78.0357 17.0935 79.0902 16.7783 80.3651 16.7783C81.64 16.7783 82.6817 17.0979 83.5159 17.7459C84.3568 18.4052 84.9975 19.2923 85.3642 20.3052C86.1716 22.5617 86.1716 25.0351 85.3642 27.2916Z" fill="#121212"/>
<path d="M101.384 30.2837L100.851 30.3858C100.587 30.431 100.319 30.453 100.051 30.4511C99.659 30.4565 99.2695 30.388 98.9022 30.2489C98.5397 30.1034 98.2374 29.8355 98.0466 29.49C97.8326 29.116 97.7171 28.5528 97.7171 27.807V16.9066H101.713V13.8102H97.7151V9.06348H93.9225V13.8102H91.0647V16.9066H93.9182V28.605C93.9182 29.7987 94.1834 30.7947 94.7182 31.584C95.2331 32.364 95.961 32.9739 96.8123 33.3386C97.6902 33.7206 98.6387 33.9053 99.5931 33.8801C100.105 33.8821 100.616 33.8325 101.118 33.7322C101.436 33.6666 101.749 33.5779 102.055 33.467L101.384 30.2837Z" fill="#121212"/>
<path d="M180.488 23.5105C180.488 21.7145 180.24 20.1865 179.741 18.9268C179.301 17.7546 178.602 16.701 177.697 15.8478C176.896 15.0716 175.941 14.4784 174.896 14.1083C173.85 13.7402 172.75 13.5528 171.643 13.5538C169.741 13.5538 168.08 13.9887 166.661 14.8585C165.249 15.7272 164.107 16.9828 163.365 18.481C162.578 20.0279 162.185 21.8167 162.187 23.8476C162.187 25.9032 162.579 27.6934 163.365 29.2183C164.119 30.7102 165.289 31.943 166.727 32.7627C168.175 33.6048 169.909 34.0245 171.93 34.0217C173.216 34.0465 174.496 33.8214 175.698 33.3585C176.797 32.9621 177.796 32.3225 178.621 31.4862C179.215 30.8794 179.684 30.1588 180.003 29.3663L176.476 28.0246H176.461C176.237 28.6191 175.882 29.1533 175.423 29.5858C175 30.0122 174.488 30.3363 173.926 30.5339C173.294 30.7526 172.63 30.8601 171.964 30.8514C170.869 30.8766 169.786 30.6256 168.811 30.1208C167.94 29.6365 167.229 28.898 166.775 28.0007C166.301 27.0351 166.054 25.9705 166.056 24.8913H180.488V23.5105ZM166.03 21.9884C166.076 21.1482 166.31 20.3296 166.717 19.5965C167.192 18.7418 167.88 18.0288 168.711 17.5287C169.632 16.9859 170.685 16.7121 171.75 16.7372C172.695 16.7123 173.629 16.9483 174.452 17.42C175.196 17.8592 175.801 18.5059 176.196 19.2834C176.648 20.1089 176.878 21.0414 176.861 21.9863L166.03 21.9884Z" fill="#121212"/>
<path d="M120.126 16.9347C119.686 16.0839 119.037 15.3633 118.241 14.843C117.488 14.3556 116.654 14.0116 115.779 13.8276C114.731 13.6474 113.67 13.5543 112.607 13.5493C111.468 13.5455 110.335 13.7186 109.247 14.0624C108.202 14.3906 107.239 14.9455 106.425 15.6888C105.715 16.3473 105.154 17.1564 104.785 18.059L108.143 19.4093C108.47 18.6596 108.987 18.0114 109.64 17.5306C110.374 16.9608 112.072 16.6761 113.352 16.6761C114.577 16.6761 115.504 16.9848 116.122 17.6023C116.74 18.2199 117.054 19.0939 117.054 20.2226V20.3116C117.07 20.5089 117.032 20.7067 116.945 20.8838C116.858 21.0608 116.725 21.2104 116.56 21.3163C116.229 21.5337 115.009 21.6707 114.278 21.762C113.546 21.8534 112.607 21.9685 111.439 22.1056C110.525 22.2153 109.618 22.3778 108.723 22.5926C107.877 22.7918 107.065 23.1141 106.31 23.5494C105.602 23.9596 105.012 24.5512 104.599 25.2649C104.171 25.9898 103.957 26.9103 103.957 28.0265C103.957 29.3224 104.246 30.4184 104.825 31.3142C105.408 32.2096 106.23 32.9183 107.193 33.3582C108.246 33.8383 109.389 34.0779 110.543 34.0606C111.612 34.0606 113.232 33.904 114 33.5843C114.701 33.311 115.344 32.9035 115.895 32.384C116.34 31.9605 116.712 31.4645 116.997 30.9164H117.161V33.6235H120.862V20.4638C120.862 19.0244 120.616 17.848 120.126 16.9347ZM117.067 26.4739C117.069 27.2486 116.866 28.0096 116.479 28.6766C116.067 29.376 115.475 29.948 114.768 30.3314C114.019 30.7532 112.857 30.9642 111.375 30.9642C110.306 30.9642 109.416 30.7228 108.725 30.2335C108.034 29.7443 107.683 29.0268 107.683 28.0743C107.654 27.4731 107.848 26.8825 108.226 26.4196C108.618 25.9778 109.115 25.6467 109.67 25.4585C110.32 25.2222 110.994 25.0609 111.679 24.9779C111.995 24.9345 112.383 24.8845 112.847 24.817C113.311 24.7497 115.39 24.5235 115.998 24.3648C116.363 24.2714 116.721 24.1478 117.067 23.9952V26.4739Z" fill="#121212"/>
<path d="M182.706 14.8128C182.699 14.7247 182.671 14.6397 182.626 14.5643C182.581 14.4889 182.519 14.425 182.445 14.3778C182.277 14.2723 182.082 14.2194 181.885 14.2256C181.738 14.2213 181.593 14.2487 181.457 14.3061C181.345 14.3502 181.247 14.4255 181.175 14.5235C181.108 14.6152 181.072 14.7268 181.075 14.841C181.071 14.9312 181.096 15.0201 181.144 15.0954C181.191 15.1667 181.253 15.2267 181.324 15.2716C181.399 15.3182 181.476 15.3568 181.558 15.3868C181.627 15.4145 181.699 15.4385 181.771 15.4586L182.144 15.5607C182.238 15.5847 182.345 15.6216 182.462 15.6651C182.582 15.7122 182.695 15.7734 182.801 15.8477C182.909 15.9261 183 16.0269 183.068 16.1435C183.139 16.2767 183.176 16.4266 183.172 16.5784C183.175 16.7711 183.121 16.9601 183.018 17.1219C182.907 17.2915 182.75 17.4256 182.567 17.5091C182.342 17.6106 182.097 17.6595 181.851 17.6526C181.617 17.6578 181.386 17.6141 181.17 17.5242C180.992 17.447 180.836 17.3223 180.722 17.1633C180.61 17.0065 180.546 16.821 180.536 16.6283H180.993C181 16.757 181.05 16.8794 181.135 16.9763C181.219 17.0699 181.325 17.1402 181.444 17.1807C181.576 17.2251 181.713 17.2471 181.851 17.2459C182.006 17.2484 182.161 17.2196 182.307 17.1611C182.435 17.1168 182.549 17.0388 182.638 16.935C182.717 16.8338 182.759 16.7077 182.758 16.5784C182.761 16.4688 182.725 16.3616 182.655 16.2783C182.581 16.1961 182.489 16.1315 182.387 16.0891C182.27 16.0388 182.15 15.9961 182.028 15.9609L181.577 15.8303C181.327 15.7661 181.094 15.6441 180.899 15.4737C180.816 15.3967 180.751 15.3024 180.708 15.1973C180.664 15.0922 180.645 14.9788 180.648 14.865C180.645 14.6694 180.703 14.4779 180.816 14.3192C180.932 14.1599 181.087 14.0346 181.267 13.956C181.467 13.8706 181.681 13.8267 181.897 13.8267C182.115 13.8267 182.329 13.8706 182.529 13.956C182.698 14.0354 182.845 14.1555 182.957 14.3061C183.063 14.4516 183.122 14.6272 183.126 14.8084L182.706 14.8128Z" fill="#121212"/>
<path d="M183.915 13.8907H184.443L185.686 16.9762H185.729L186.972 13.8907H187.5V17.609H187.084V14.7823H187.05L185.906 17.609H185.507L184.364 14.7823H184.328V17.609H183.915V13.8907Z" fill="#121212"/>
<path d="M2.8963 20.9007L0.5 17.9976L3.59805 15.9033L2.09784 12.4259L5.64718 11.3095L5.16367 7.54068L8.87601 7.49353L9.44973 3.73888L13.0248 4.76383L14.6088 1.32598L17.7567 3.34192L20.223 0.5L22.6883 3.34192L25.8361 1.32598L27.4202 4.76383L30.9953 3.73888L31.569 7.49353L35.2813 7.54068L34.7987 11.3095L38.3481 12.4259L36.8479 15.9033L39.9459 17.9976L37.5496 20.9007L39.9459 23.8039L36.8479 25.899L38.3481 29.3756L34.7987 30.4919L35.2813 34.2608L31.569 34.3079L30.9953 38.0626L27.4202 37.0376L25.8361 40.4754L22.6883 38.4595L20.223 41.3013L17.7567 38.4595L14.6088 40.4754L13.0248 37.0376L9.44973 38.0626L8.87601 34.3079L5.16367 34.2608L5.64718 30.4919L2.09784 29.3756L3.59805 25.899L0.5 23.8039L2.8963 20.9007Z" fill="#121212"/>
</g>
</svg>
