<svg width="140" height="32" viewBox="0 0 140 32" fill="none" xmlns="http://www.w3.org/2000/svg">
<path opacity="0.6" d="M132.991 5.00079C130.169 5.00079 127.963 6.45597 127.062 8.73389L126.408 5.44854H119.375V24.7157H127.88V13.4773C127.88 11.0118 128.781 9.7805 130.213 9.7805C131.928 9.7805 132.624 11.9465 131.766 15.008L139.493 12.1339C139.655 7.69008 137.203 5.00079 132.991 5.00079ZM104.529 8.17699C106.411 8.17699 107.882 10.0436 108.617 12.2095L102.975 15.0835C102.525 13.6647 102.24 12.2459 102.24 11.1629C102.24 9.25999 103.098 8.17699 104.529 8.17699ZM111.44 16.5023C111.725 18.8922 110.787 21.5423 108.617 21.5423C106.779 21.5423 105.102 19.6758 103.956 17.3615L116.877 12.5817C115.936 8.21338 111.682 4.92803 105.877 4.92803C99.6621 4.92803 94.3875 8.70031 94.3875 15.0835C94.3875 21.1701 99.1717 25.239 106.288 25.239C113.567 25.239 117.003 20.9462 117.698 17.0984L111.44 16.5023ZM92.5486 18.7802C91.8131 20.6467 90.627 21.8054 89.3183 21.8054C88.215 21.8054 87.5192 21.1701 87.5192 19.6758V9.4447H93.1615L94.553 5.44854H87.5192V0.221074H85.187C84.0008 3.43087 81.1383 5.67241 78.236 5.70879C78.7263 7.1276 78.8888 8.28614 78.8888 10.1135V18.8502C78.8888 22.9583 82.0792 25.2362 87.3139 25.2362C91.0346 25.2362 93.9401 24.0776 95.2058 22.3622L92.5486 18.7802ZM77.0069 18.3325C77.0069 14.6721 74.5123 13.105 70.9969 12.2459L65.4342 10.9027C64.4933 10.6788 64.0428 10.1555 64.0428 9.59581C64.0428 8.62474 65.1461 8.06506 67.1904 8.06506C69.9303 8.06506 72.3025 9.25999 73.2832 11.5743L76.5534 7.95313C74.549 6.23489 70.7057 4.92803 66.4517 4.92803C60.5213 4.92803 56.4329 7.54176 56.4329 11.7226C56.4329 14.7477 58.5598 16.7262 63.059 17.8091L67.5581 18.8922C68.5818 19.1525 69.112 19.6758 69.112 20.4229C69.112 21.3184 68.1313 21.9536 66.0441 21.9536C62.6514 21.9536 59.0103 20.2746 57.4963 17.2858L55.4123 22.2895C57.8243 24.0805 61.9557 25.239 66.2065 25.239C72.8357 25.239 77.0069 22.4406 77.0069 18.3325ZM46.8706 20.1991L42.2489 5.45134H33.1311L39.8798 24.4191H45.2371C44.051 26.3611 42.2918 27.2203 39.6745 27.2203C37.4647 27.2203 35.6258 26.5487 34.3171 25.5021V30.6931C35.4634 31.5159 37.2195 32 39.4293 32C44.1306 32 46.6684 30.097 48.6697 25.2418L56.8496 5.45134H51.5752L46.8706 20.1991ZM16.7742 21.7662C20.0045 21.7662 22.3766 19.6002 22.3766 16.6143C22.3766 13.6283 20.0045 11.4624 16.7742 11.4624C13.5438 11.4624 11.1717 13.6283 11.1717 16.6143C11.1717 19.6002 13.5438 21.7662 16.7742 21.7662ZM16.7742 0C26.3027 0 33.0483 5.22746 33.0483 12.6209C33.0483 20.0143 26.2996 25.2418 16.7742 25.2418C7.24872 25.2418 0.500001 20.0143 0.500001 12.6209C0.496936 5.22746 7.24566 0 16.7742 0Z" fill="#121212"/>
</svg>
