<svg width="163" height="42" viewBox="0 0 163 42" fill="none" xmlns="http://www.w3.org/2000/svg">
<g opacity="0.6">
<path d="M55.663 12.4303H60.6475C64.4692 12.4303 66.7953 15.3709 66.7953 18.5635C66.7953 21.5881 64.5522 24.5287 60.6475 24.5287H57.823V30.7459H55.5799V12.4303H55.663ZM60.0661 22.3442C62.8075 22.3442 64.3861 20.9999 64.3861 18.3954C64.3861 15.7909 62.8075 14.4466 60.0661 14.4466H57.823V22.3442H60.0661Z" fill="#121212"/>
<path d="M70.9488 12.4303H73.1919V28.5614H79.4227V30.6619H70.7826L70.9488 12.4303Z" fill="#121212"/>
<path d="M94.7918 26.2932H86.4011L84.7396 30.4939H82.2473L89.558 12.1783H91.5518L98.8627 30.4939H96.3704L94.7918 26.2932ZM90.5549 15.455L87.1488 24.4447H93.9611L90.5549 15.455Z" fill="#121212"/>
<path d="M103.931 14.5308H99.4443V12.4303H110.743V14.5308H106.257V30.6619H104.014L103.931 14.5308Z" fill="#121212"/>
<path d="M114.731 12.4303H124.035V14.5308H116.974V20.3278H124.035V22.4282H116.974V28.3934H124.035V30.4938H114.731V12.4303Z" fill="#121212"/>
<path d="M136.58 12.4303H138.823V30.7458H136.58V12.4303Z" fill="#121212"/>
<path d="M158.678 29.0655C157.266 30.1577 155.273 30.7459 152.946 30.7459C146.798 30.7459 143.393 25.8728 143.393 21.336C143.393 16.7992 146.798 11.9261 152.946 11.9261C159.094 11.9261 162.5 16.7992 162.5 21.336C162.5 23.6044 161.753 25.8728 160.174 27.5532L162.002 29.4016L160.589 30.8299L158.678 29.0655ZM158.595 26.0409C159.509 24.8647 160.174 23.2683 160.174 21.504C160.174 17.1351 156.767 14.1945 152.946 14.1945C149.124 14.1945 145.718 17.1351 145.718 21.504C145.718 25.8728 149.124 28.8134 152.946 28.8134C154.358 28.8134 155.854 28.3933 157.017 27.4692L155.189 25.6209L156.602 24.1926L158.595 26.0409Z" fill="#121212"/>
<path d="M19.94 0.5C19.6078 0.5 19.1923 0.5 18.86 0.5C8.64155 1.08812 0.5 10.0779 0.5 21C0.5 21.084 0.5 21.168 0.5 21.2521V21.3361C0.5 21.4201 0.5 21.4201 0.5 21.5041V21.5882C0.5 21.6722 0.5 21.6722 0.5 21.7561V21.8401C0.5 21.9242 0.5 21.9242 0.5 22.0082V22.0922V22.1762C0.5 22.2602 0.5 22.2602 0.5 22.3443V22.4283C0.5 22.5123 0.5 22.5123 0.5 22.5963V22.6804C0.5 22.7644 0.5 22.7644 0.5 22.8484V22.9323C0.5 23.1004 0.5 23.3524 0.583077 23.5205C0.583077 23.6045 0.583077 23.6885 0.583077 23.6885C0.583077 23.6885 0.583077 23.6885 0.583077 23.7726C0.583077 23.8566 0.583077 23.8566 0.583077 23.9406C0.583077 23.9406 0.583077 23.9406 0.583077 24.0246C0.583077 24.1085 0.583077 24.1927 0.583077 24.1927C0.583077 24.2766 0.583077 24.3606 0.583077 24.3606C1.99538 33.1823 8.72463 39.9877 17.1985 41.1639L17.4478 37.8033L17.78 33.2665L17.8631 31.334C17.8631 30.8299 17.5309 30.4099 17.0323 30.2418C13.7093 28.9816 11.3 25.2008 11.3 20.6639C11.3 15.0349 15.2047 10.4979 19.94 10.4979C24.6754 10.4979 28.5801 15.0349 28.5801 20.6639C28.5801 25.2008 26.1709 28.9816 22.6816 30.3258C22.1831 30.4939 21.8509 30.9139 21.8509 31.418L21.934 33.3504L22.2662 37.8873L22.5154 41.2479C25.34 40.8279 27.9154 39.8196 30.2416 38.3915L32.0693 40.4918C33.3985 41.8361 35.4754 41.8361 36.8047 40.4918C38.1339 39.1476 38.1339 36.9632 36.8047 35.7028L35.1432 33.8545C37.3863 30.9139 38.8816 27.3012 39.297 23.2684C39.297 23.1844 39.297 23.1004 39.297 23.0165C39.297 22.8484 39.297 22.5963 39.3801 22.4283C39.3801 22.3443 39.3801 22.3443 39.3801 22.2602V22.1762C39.3801 22.0922 39.3801 22.0922 39.3801 22.0082V21.9242V21.8401C39.3801 21.7561 39.3801 21.7561 39.3801 21.6722V21.5882C39.3801 21.5041 39.3801 21.5041 39.3801 21.4201V21.3361C39.3801 21.2521 39.3801 21.168 39.3801 21.084C39.3801 9.65779 30.657 0.5 19.94 0.5Z" fill="#121212"/>
</g>
</svg>
