<svg width="212" height="35" viewBox="0 0 212 35" fill="none" xmlns="http://www.w3.org/2000/svg">
<g opacity="0.6">
<path d="M0.0496108 9.95634C0.0957056 9.87998 0.11701 9.72278 0.138284 9.64296C0.397125 8.63299 1.01763 7.90414 1.93598 7.39048C5.14844 5.60654 8.35735 3.81566 11.5698 2.02825C12.4527 1.53541 13.3355 1.04952 14.2149 0.553206C15.5021 -0.175641 16.7892 -0.186053 18.0798 0.532381C22.2142 2.83345 26.3521 5.13452 30.4794 7.44254C31.6104 8.0742 32.2132 9.04253 32.284 10.3197C32.2912 10.4447 32.2912 10.5731 32.2912 10.7015C32.2912 15.1926 32.2947 19.6837 32.2876 24.1712C32.2876 24.494 32.2735 24.8203 32.2061 25.1327C31.9863 26.1496 31.3906 26.9062 30.4687 27.4199C28.0292 28.7804 25.5862 30.1409 23.1467 31.5014C21.5582 32.3864 19.9661 33.2714 18.3777 34.1599C17.9167 34.4168 17.4523 34.6702 16.9274 34.7916C16.8601 34.8055 16.7998 34.8472 16.736 34.8749C16.3566 34.8749 16.4057 34.8749 16.0263 34.8749C15.9625 34.8472 15.4772 34.8055 15.4098 34.7916C14.9099 34.6771 14.4632 34.4446 14.0199 34.1947C12.4846 33.334 10.9422 32.4802 9.40334 31.6229C6.8894 30.2242 4.37901 28.8221 1.86507 27.4234C0.978629 26.9305 0.40067 26.2051 0.14183 25.2368C0.11701 25.1431 0.0496406 25.0598 0 24.9696C0.00354576 19.937 0.0496108 14.9888 0.0496108 9.95634ZM1.45731 17.4C1.45731 18.8437 1.45731 20.2876 1.45731 21.7279C1.45731 22.606 1.45731 23.4841 1.45731 24.3587C1.45731 25.1952 1.82961 25.8199 2.56712 26.2363C2.69122 26.3058 2.81178 26.3752 2.93588 26.4446C5.73703 28.0064 8.53818 29.5648 11.3358 31.1266C12.5662 31.8138 13.7965 32.5009 15.0304 33.1847C15.7786 33.6012 16.5339 33.6012 17.2892 33.1916C17.4238 33.1188 17.5551 33.0424 17.6897 32.9695C20.4378 31.4389 23.1892 29.9048 25.9372 28.3744C27.1888 27.6767 28.4369 26.9756 29.6921 26.2849C30.2311 25.99 30.6353 25.5839 30.7878 24.9904C30.8552 24.7266 30.8799 24.442 30.8799 24.1679C30.8871 20.659 30.8835 17.15 30.8835 13.6378C30.8835 12.6104 30.8799 11.5831 30.8835 10.5558C30.8835 9.9935 30.7488 9.46943 30.3374 9.06335C30.1283 8.85164 29.8695 8.67463 29.6071 8.5254C26.5931 6.83863 23.5793 5.15882 20.5618 3.479C19.4556 2.86122 18.3493 2.23997 17.236 1.62912C16.5339 1.24387 15.8177 1.24734 15.1049 1.6187C15.0128 1.6673 14.9205 1.71936 14.8284 1.77142C12.2861 3.19788 9.74374 4.61392 7.19788 6.03343C5.70867 6.86293 4.21945 7.68895 2.73732 8.52192C2.51394 8.64686 2.28701 8.7857 2.10264 8.95577C1.64523 9.37225 1.45376 9.90326 1.45731 10.5106C1.46085 12.8082 1.45731 15.1058 1.45731 17.4Z" fill="#121212"/>
<path d="M126.876 26.5284C126.712 26.5284 126.608 26.5284 126.509 26.5284C125.09 26.5284 123.672 26.5214 122.257 26.5353C121.994 26.5388 122.113 26.5353 121.891 26.5353C121.153 25.1679 120.25 23.502 119.512 22.131C119.398 21.9277 119.442 22.0149 119.353 21.843C118.432 21.8568 117.176 21.8499 116.254 21.8499C116.148 21.8499 116.045 21.8499 115.899 21.8499C115.853 22.256 115.882 22.6447 115.878 23.0299C115.875 23.4117 115.878 23.7935 115.878 24.1718C115.878 24.564 115.878 24.9561 115.878 25.3483C115.878 25.7267 115.878 26.105 115.878 26.5041C114.407 26.5041 112.951 26.5051 111.518 26.5051C111.518 26.2435 111.47 10.4041 111.47 9.83785C111.55 9.83785 111.683 9.83782 111.772 9.83782C114.346 9.83782 116.924 9.8274 119.498 9.84475C120.587 9.8517 121.668 9.98358 122.697 10.3654C123.069 10.5042 123.442 10.6638 123.785 10.8582C125.129 11.6183 125.962 12.7497 126.26 14.2387C126.498 15.4221 126.459 16.6057 126.108 17.7684C125.7 19.115 124.863 20.1354 123.625 20.8434C123.534 20.8955 123.442 20.9475 123.348 20.9996C123.339 21.0065 123.335 21.0169 123.292 21.069C124.47 22.8564 125.661 24.6819 126.876 26.5284ZM115.896 18.4973C115.984 18.4973 116.031 18.4973 116.077 18.4973C117.197 18.4973 118.321 18.5111 119.442 18.4868C119.803 18.4799 120.176 18.4208 120.52 18.3133C121.413 18.0356 121.973 17.4386 122.158 16.5293C122.25 16.0815 122.253 15.6338 122.179 15.1862C122.026 14.2838 121.495 13.6764 120.612 13.3919C120.268 13.2807 119.899 13.2079 119.537 13.2009C118.392 13.1731 117.247 13.1835 116.101 13.1801C116.034 13.1801 115.971 13.1801 115.896 13.1801C115.896 14.9397 115.896 16.7341 115.896 18.4973Z" fill="#121212"/>
<path d="M107.636 16.4982C107.636 17.6331 107.636 18.7125 107.636 19.8335C104.898 19.8335 102.175 19.8335 99.4272 19.8335C99.4272 20.9615 99.4272 22.0514 99.4272 23.1932C102.544 23.1932 105.654 23.1932 108.788 23.1932C108.788 24.3142 108.788 25.4006 108.788 26.5077C104.2 26.5077 99.4618 26.5077 94.8984 26.5077C94.8987 25.5446 94.8986 10.8999 94.8984 9.85181C99.3767 9.85181 104.012 9.85181 108.522 9.85181C108.522 10.952 108.522 12.0418 108.522 13.1663C105.494 13.1663 102.384 13.1663 99.3772 13.1663C99.3772 13.4271 99.3686 15.9555 99.3772 16.4843C99.8239 16.4878 100.339 16.4913 100.796 16.4913C101.246 16.4913 101.693 16.4913 102.143 16.4913C102.604 16.4913 103.065 16.4913 103.526 16.4913C103.976 16.4913 104.423 16.4913 104.873 16.4913C105.334 16.4913 105.795 16.4913 106.256 16.4913C106.7 16.4982 107.146 16.4982 107.636 16.4982Z" fill="#121212"/>
<path d="M59.1768 9.77668C60.6625 9.77668 62.0914 9.77197 63.5629 9.77197C63.5629 9.93857 63.5629 10.0843 63.5629 10.2301C63.5629 13.208 63.5593 16.1858 63.5664 19.1637C63.5664 19.5871 63.5948 20.0209 63.6763 20.4374C63.96 21.8569 65.1018 22.8634 66.5662 23.0509C67.1512 23.1237 67.7257 23.1098 68.2858 22.9467C69.5305 22.5788 70.2751 21.7424 70.5445 20.5137C70.6367 20.0904 70.6651 19.6426 70.6651 19.2088C70.6756 16.2205 70.6687 13.2288 70.6687 10.2405C70.6687 10.0913 70.6687 9.9455 70.6687 9.77544C72.1331 9.77544 73.5868 9.77668 75.0299 9.77668C75.0299 9.86681 75.0299 9.9351 75.0299 10.0115C75.0263 13.326 75.0547 16.637 75.0051 19.948C74.9767 21.798 74.2888 23.4188 72.8847 24.7064C71.9202 25.5879 70.7644 26.1294 69.4843 26.3931C67.5766 26.7888 65.6727 26.7645 63.8254 26.1224C61.2086 25.213 59.6839 23.3944 59.2689 20.7046C59.2017 20.2604 59.1803 19.8092 59.1803 19.358C59.1732 16.3004 59.1768 13.2392 59.1768 10.1815C59.1768 10.047 59.1768 9.93287 59.1768 9.77668Z" fill="#121212"/>
<path d="M42.3561 23.9949C42.92 22.912 43.4696 21.8535 44.0368 20.7671C44.129 20.8261 44.207 20.8713 44.2744 20.9268C45.7636 22.0582 47.4337 22.8113 49.2881 23.155C49.9653 23.2799 50.6496 23.3008 51.3269 23.1271C51.4971 23.082 51.6673 23.0266 51.8233 22.9467C52.6956 22.5129 52.8303 21.3953 52.0786 20.781C51.8907 20.6283 51.6638 20.5138 51.4404 20.4131C50.6107 20.0417 49.7242 19.837 48.8555 19.5767C47.9868 19.3164 47.1252 19.0318 46.2742 18.7264C45.6111 18.4869 45.0544 18.0843 44.551 17.5984C43.8702 16.9425 43.5192 16.1441 43.4376 15.2279C43.3773 14.5823 43.4128 13.9368 43.6114 13.3086C43.9907 12.1043 44.7992 11.2539 45.8984 10.6466C46.7742 10.1607 47.7208 9.87954 48.7137 9.76154C51.2773 9.45611 53.7274 9.85524 56.057 10.9346C56.3548 11.0735 56.6384 11.2401 56.9257 11.3997C56.986 11.4344 57.0392 11.4795 57.1171 11.5351C56.5675 12.6249 56.0214 13.7077 55.4648 14.8114C55.3229 14.742 55.2095 14.683 55.0995 14.6274C53.7771 13.9403 52.3906 13.4301 50.9121 13.1767C50.3873 13.0865 49.859 13.0344 49.3271 13.1386C49.1427 13.1767 48.9549 13.2149 48.7846 13.2843C47.9691 13.6105 47.7599 14.5267 48.3626 15.1584C48.5257 15.3321 48.7421 15.4847 48.9654 15.5715C49.664 15.8457 50.3766 16.0921 51.0893 16.335C52.0822 16.6683 53.0857 16.9667 54.0748 17.3172C54.901 17.6088 55.5889 18.1085 56.1811 18.7437C56.8158 19.4274 57.0959 20.2431 57.1597 21.142C57.3086 23.2278 56.4044 24.7549 54.5465 25.7545C53.699 26.2126 52.7771 26.466 51.8198 26.577C48.6286 26.9484 45.6999 26.2335 43.0263 24.5086C42.849 24.394 42.6824 24.2656 42.5121 24.1407C42.4625 24.099 42.4235 24.0574 42.3561 23.9949Z" fill="#121212"/>
<path d="M82.6 21.8467C82.6 23.4259 82.6 24.9564 82.6 26.5044C81.1286 26.5044 79.6925 26.5044 78.2317 26.5044C78.2317 20.9583 78.2314 15.3982 78.2314 9.8381C78.3508 9.8381 78.4551 9.8381 78.5579 9.8381C81.0009 9.8381 83.4475 9.82769 85.8905 9.84157C87.1244 9.84851 88.3407 10.0116 89.4824 10.5114C91.4502 11.3791 92.4927 12.8819 92.6806 14.9712C92.755 15.818 92.7161 16.658 92.5033 17.4805C91.9857 19.5144 90.6489 20.802 88.6349 21.4441C87.6598 21.7565 86.6493 21.8363 85.6282 21.8433C84.7666 21.8467 83.9048 21.8433 83.0432 21.8433C82.9157 21.8467 82.788 21.8467 82.6 21.8467ZM82.6249 13.1768C82.6249 14.9365 82.6347 16.7378 82.6347 18.4941C82.7144 18.4941 82.7561 18.4941 82.8128 18.4941C83.8162 18.4941 84.8197 18.5113 85.8196 18.4801C86.2025 18.4697 86.5961 18.3899 86.9578 18.2684C87.7804 17.9942 88.2946 17.4112 88.4647 16.5816C88.5392 16.2241 88.5605 15.8459 88.5356 15.4815C88.4435 14.2841 87.7521 13.5275 86.5536 13.2775C86.3231 13.2289 86.0855 13.1942 85.8551 13.1908C84.8516 13.1768 83.8481 13.1768 82.8483 13.1768C82.7594 13.1768 82.7173 13.1768 82.6249 13.1768Z" fill="#121212"/>
<path d="M194.719 23.2355C194.719 21.0213 194.721 18.6951 194.721 16.4807C194.721 14.2804 194.721 12.0765 194.721 9.85865C195.384 9.85865 196.002 9.85865 196.643 9.85865C196.643 15.4152 196.643 20.9511 196.643 26.5284C196.345 26.5284 196.066 26.5284 195.785 26.5284C195.502 26.5284 194.928 26.5284 194.648 26.5284C194.541 26.4179 194.59 26.4763 194.459 26.3098C193.24 24.7201 192.012 23.1411 190.785 21.5584C188.704 18.8721 186.622 16.1823 184.542 13.4959C184.474 13.4092 184.479 13.4269 184.302 13.209C184.302 17.6098 184.265 22.0755 184.265 26.5215C183.598 26.5423 182.919 26.5284 182.295 26.5319C182.295 25.95 182.295 10.5843 182.324 9.8413C182.42 9.8413 182.482 9.8413 182.57 9.8413C183.056 9.83783 183.86 9.8517 184.346 9.83435C184.479 10.0266 184.389 9.91071 184.523 10.0843C185.956 11.948 187.396 13.8083 188.836 15.6687C190.708 18.0911 192.579 20.5137 194.452 22.9362C194.512 23.016 194.583 23.089 194.65 23.1618C194.686 23.1994 194.675 23.1919 194.719 23.2355Z" fill="#121212"/>
<path d="M158.135 19.2016C154.629 19.2016 151.185 19.2016 147.704 19.2016C147.704 21.6344 147.704 24.1021 147.704 26.5073C147.353 26.5098 146.395 26.5073 145.751 26.5073C145.752 26.2432 145.76 10.2443 145.76 9.8584C146.388 9.8584 147.019 9.8584 147.686 9.8584C147.686 12.3642 147.686 14.8528 147.686 17.3621C151.176 17.3621 154.629 17.3621 158.121 17.3621C158.121 14.8562 158.121 12.3677 158.121 9.86187C158.792 9.86187 159.423 9.86187 160.075 9.86187C160.075 15.415 160.075 20.9473 160.075 26.5073C159.433 26.5073 158.801 26.5073 158.135 26.5073C158.135 24.0779 158.135 21.6588 158.135 19.2016Z" fill="#121212"/>
<path d="M200.01 26.5006C200.01 20.944 200.01 15.4082 200.01 9.8551C203.915 9.8551 207.793 9.8551 211.697 9.8551C211.697 10.459 211.697 11.0421 211.697 11.6703C208.46 11.6703 205.23 11.6703 201.978 11.6703C201.978 13.5202 201.978 15.325 201.978 17.1644C204.879 17.1644 207.758 17.1644 210.662 17.1644C210.662 17.7787 210.662 18.3618 210.662 18.997C210.087 19.0177 209.512 19.0038 208.939 19.0073C208.36 19.0108 207.778 19.0073 207.201 19.0073C206.623 19.0073 206.042 19.0073 205.464 19.0073C204.885 19.0073 204.304 19.0073 203.726 19.0073C203.149 19.0073 202.574 19.0073 201.975 19.0073C201.975 20.9197 201.975 22.7974 201.975 24.7201C205.312 24.7201 208.662 24.7333 211.999 24.7333C211.999 24.8234 211.999 24.8936 211.999 24.9595C212.001 25.4663 211.999 25.973 211.999 26.504C207.995 26.5006 204.02 26.5006 200.01 26.5006Z" fill="#121212"/>
<path d="M132.143 21.2567C132.143 23.0337 132.143 24.7586 132.143 26.5079C131.477 26.5079 130.846 26.5079 130.194 26.5079C130.194 20.9548 130.2 15.3982 130.2 9.8381C130.31 9.8381 130.413 9.8381 130.516 9.8381C132.619 9.8381 134.722 9.82769 136.825 9.84157C137.902 9.84851 138.969 9.97693 139.987 10.3656C142.104 11.1778 143.231 12.7014 143.39 14.9158C143.448 15.6931 143.405 16.4636 143.203 17.2168C142.735 18.973 141.587 20.1252 139.866 20.7604C138.916 21.1109 137.924 21.2462 136.913 21.2497C135.469 21.2567 134.031 21.2532 132.587 21.2532C132.458 21.2532 132.328 21.2567 132.143 21.2567ZM132.162 19.4381C132.248 19.4381 132.289 19.4381 132.336 19.4381C133.881 19.4381 135.428 19.4519 136.973 19.4311C137.718 19.4207 138.452 19.3027 139.154 19.0355C140.047 18.6953 140.75 18.1469 141.158 17.2793C141.416 16.7344 141.501 16.1548 141.512 15.5612C141.547 13.708 140.618 12.4723 138.795 11.9483C138.132 11.7574 137.456 11.681 136.767 11.6776C135.328 11.6741 133.888 11.6741 132.449 11.6776C132.357 11.6776 132.282 11.6776 132.179 11.6776C132.181 14.2528 132.162 16.8558 132.162 19.4381Z" fill="#121212"/>
<path d="M26.2499 20.9607C26.2499 21.2383 26.2428 21.516 26.2535 21.7901C26.2677 22.1927 26.1364 22.5502 25.86 22.8348C25.6188 23.0813 25.3458 23.3137 25.055 23.5012C24.6188 23.7754 24.1544 24.0079 23.7005 24.2543C23.2183 24.5147 22.7467 24.5215 22.2539 24.2473C17.8714 21.811 13.4887 19.3815 9.10266 16.9486C8.25168 16.4765 7.40425 15.9941 6.54263 15.5359C6.21287 15.3589 6.06395 15.1299 6.07813 14.7585C6.09941 14.2067 6.09586 13.6513 6.07813 13.0961C6.06395 12.6414 6.2306 12.2596 6.53554 11.9334C6.66318 11.798 6.79437 11.6523 6.9504 11.562C7.56735 11.2011 8.18077 10.8297 8.82255 10.5139C9.23032 10.3126 9.65935 10.375 10.0742 10.6041C12.6059 12.0167 15.1446 13.4188 17.6798 14.8245C20.3711 16.3169 23.0552 17.8127 25.75 19.2982C26.101 19.4926 26.2748 19.732 26.2428 20.1277C26.2323 20.4053 26.2499 20.6865 26.2499 20.9607Z" fill="#121212"/>
<path d="M11.4146 9.15343C11.6167 9.00765 11.7478 8.89313 11.8968 8.80982C13.0349 8.17815 14.1802 7.5569 15.3184 6.92177C16.0879 6.4914 16.836 6.51223 17.5983 6.94607C19.5875 8.07751 21.5838 9.19854 23.5765 10.323C24.1296 10.6354 24.6757 10.9582 25.2358 11.2532C25.9025 11.6072 26.2358 12.1486 26.2429 12.881C26.2536 14.1616 26.2536 15.4423 26.25 16.723C26.25 17.1742 26.0514 17.2887 25.6437 17.0736C25.0196 16.7438 24.4098 16.3968 23.7928 16.0567C19.8215 13.8528 15.8467 11.6489 11.8755 9.44496C11.7408 9.37555 11.6202 9.28878 11.4146 9.15343Z" fill="#121212"/>
<path d="M20.9152 25.8104C20.7131 25.9562 20.5819 26.0706 20.433 26.1539C19.2948 26.7856 18.1495 27.4068 17.0114 28.042C16.2419 28.4724 15.4938 28.4516 14.7314 28.0178C12.7423 26.8863 10.746 25.7652 8.75331 24.6407C8.20017 24.3284 7.65413 24.0056 7.0939 23.7106C6.4273 23.3566 6.09399 22.8152 6.08691 22.0828C6.07627 20.8022 6.07627 19.5215 6.07982 18.2408C6.07982 17.7896 6.27837 17.6751 6.68614 17.8902C7.31019 18.22 7.92006 18.567 8.53702 18.9071C12.5083 21.111 16.4831 23.315 20.4543 25.5189C20.589 25.5882 20.7096 25.675 20.9152 25.8104Z" fill="#121212"/>
<path fill-rule="evenodd" clip-rule="evenodd" d="M171.211 26.6789C176.227 26.6789 180.293 22.8925 180.293 18.2217C180.293 13.551 176.227 9.76453 171.211 9.76453C166.196 9.76453 162.13 13.551 162.13 18.2217C162.13 22.8925 166.196 26.6789 171.211 26.6789ZM171.165 24.8478C175.025 24.8478 178.155 21.8811 178.155 18.2215C178.155 14.562 175.025 11.5953 171.165 11.5953C167.305 11.5953 164.176 14.562 164.176 18.2215C164.176 21.8811 167.305 24.8478 171.165 24.8478Z" fill="#121212"/>
</g>
</svg>
