<?xml version="1.0" standalone="no"?>
<!DOCTYPE svg PUBLIC "-//W3C//DTD SVG 20010904//EN"
 "http://www.w3.org/TR/2001/REC-SVG-20010904/DTD/svg10.dtd">
<svg version="1.0" xmlns="http://www.w3.org/2000/svg"
 width="35" height="35" viewBox="0 0 512.000000 512.000000"
 preserveAspectRatio="xMidYMid meet">

<g transform="translate(0.000000,512.000000) scale(0.100000,-0.100000)"
fill="#009985" stroke="none">
<path d="M284 4906 c-61 -27 -94 -97 -79 -168 6 -27 201 -228 1078 -1105
l1072 -1073 -1072 -1072 c-944 -946 -1072 -1077 -1078 -1110 -20 -108 64 -193
172 -174 34 7 144 113 1111 1079 l1072 1072 1073 -1072 c966 -966 1076 -1072
1110 -1079 108 -19 194 70 172 178 -6 27 -201 228 -1078 1106 l-1072 1072
1072 1073 c966 966 1072 1076 1079 1110 19 108 -70 194 -178 172 -27 -6 -228
-201 -1106 -1078 l-1072 -1072 -1068 1067 c-604 604 -1079 1072 -1095 1078
-38 13 -75 12 -113 -4z"/>
</g>
</svg>
