<svg width="104" height="93" viewBox="0 0 104 93" fill="none" xmlns="http://www.w3.org/2000/svg">
<path d="M36.5268 15.2195H15.2195L30.439 0H51.7463L36.5268 15.2195Z" fill="#005C50"/>
<path d="M15.2195 50.7317V15.2195L0 30.439V66.4585L15.2195 50.7317Z" fill="#008C7A"/>
<path d="M0 15.2195V0H15.7268L0 15.2195Z" fill="#008C7A"/>
<path d="M36.5269 66.9658V15.2195L51.7464 0L52.2537 50.2244L36.5269 66.9658Z" fill="#008C7A"/>
<path d="M51.7463 0H77.1122L62.9073 15.2195H51.7463V0Z" fill="#005C50"/>
<path d="M67.9805 15.2195L82.1853 0H104L82.1853 23.3366L67.9805 15.2195Z" fill="#3B647D"/>
<path d="M89.2878 66.966H67.9805L90.8097 43.1221L104 50.2245L89.2878 66.966Z" fill="#3B647D"/>
<path d="M67.9805 30.9463V15.2195L104 34.9998V50.2244L67.9805 30.9463Z" fill="#9EB0BC"/>
<path d="M3.40249 92.8269C3.30718 92.8269 3.22617 92.7992 3.15945 92.7436C3.10227 92.6788 3.07367 92.6001 3.07367 92.5075V84.3408H0.328812C0.233504 84.3408 0.152492 84.313 0.085777 84.2575C0.0285923 84.1927 0 84.114 0 84.0214V83.438C0 83.3362 0.0285923 83.2575 0.085777 83.2019C0.152492 83.1371 0.233504 83.1047 0.328812 83.1047H7.21956C7.3244 83.1047 7.40541 83.1371 7.4626 83.2019C7.52931 83.2575 7.56267 83.3362 7.56267 83.438V84.0214C7.56267 84.114 7.52931 84.1927 7.4626 84.2575C7.40541 84.313 7.3244 84.3408 7.21956 84.3408H4.489V92.5075C4.489 92.6001 4.45564 92.6788 4.38892 92.7436C4.33174 92.7992 4.25073 92.8269 4.14589 92.8269H3.40249Z" fill="black"/>
<path d="M9.4941 92.8269C9.38927 92.8269 9.30825 92.7992 9.25107 92.7436C9.19388 92.6788 9.16529 92.6001 9.16529 92.5075V83.438C9.16529 83.3362 9.19388 83.2575 9.25107 83.2019C9.30825 83.1371 9.38927 83.1047 9.4941 83.1047H15.3984C15.5033 83.1047 15.5843 83.1371 15.6415 83.2019C15.6986 83.2575 15.7272 83.3362 15.7272 83.438V83.9658C15.7272 84.0677 15.6986 84.1464 15.6415 84.2019C15.5843 84.2575 15.5033 84.2853 15.3984 84.2853H10.5377V87.3269H15.0839C15.1887 87.3269 15.2698 87.3593 15.3269 87.4242C15.3841 87.4797 15.4127 87.5584 15.4127 87.6603V88.1742C15.4127 88.2667 15.3841 88.3454 15.3269 88.4103C15.2698 88.4658 15.1887 88.4936 15.0839 88.4936H10.5377V91.6464H15.5128C15.6176 91.6464 15.6986 91.6742 15.7558 91.7297C15.813 91.7853 15.8416 91.864 15.8416 91.9658V92.5075C15.8416 92.6001 15.813 92.6788 15.7558 92.7436C15.6986 92.7992 15.6176 92.8269 15.5128 92.8269H9.4941Z" fill="black"/>
<path d="M21.34 92.9658C20.4632 92.9658 19.7341 92.8084 19.1527 92.4936C18.5809 92.1788 18.1472 91.739 17.8518 91.1742C17.5563 90.6093 17.3943 89.9519 17.3657 89.2019C17.3562 88.8223 17.3514 88.4149 17.3514 87.9797C17.3514 87.5445 17.3562 87.1279 17.3657 86.7297C17.3943 85.9797 17.5563 85.3223 17.8518 84.7575C18.1472 84.1927 18.5809 83.7529 19.1527 83.438C19.7341 83.1232 20.4632 82.9658 21.34 82.9658C21.9977 82.9658 22.5743 83.0538 23.0699 83.2297C23.5655 83.4056 23.9753 83.6417 24.2993 83.938C24.6329 84.2343 24.8855 84.5677 25.057 84.938C25.2286 85.2992 25.3239 85.6742 25.343 86.063C25.3525 86.1464 25.3239 86.2158 25.2572 86.2714C25.2 86.3269 25.1285 86.3547 25.0427 86.3547H24.2565C24.1707 86.3547 24.0944 86.3316 24.0277 86.2853C23.9705 86.239 23.9276 86.1556 23.8991 86.0353C23.737 85.313 23.432 84.8177 22.9841 84.5492C22.5457 84.2806 21.9977 84.1464 21.34 84.1464C20.568 84.1464 19.9581 84.3593 19.5101 84.7853C19.0622 85.2019 18.8239 85.8732 18.7953 86.7992C18.7667 87.5584 18.7667 88.3362 18.7953 89.1325C18.8239 90.0584 19.0622 90.7343 19.5101 91.1603C19.9581 91.5769 20.568 91.7853 21.34 91.7853C21.9977 91.7853 22.5457 91.651 22.9841 91.3825C23.432 91.114 23.737 90.6186 23.8991 89.8964C23.9276 89.776 23.9705 89.6927 24.0277 89.6464C24.0944 89.6001 24.1707 89.5769 24.2565 89.5769H25.0427C25.1285 89.5769 25.2 89.6047 25.2572 89.6603C25.3239 89.7066 25.3525 89.7714 25.343 89.8547C25.3239 90.2436 25.2286 90.6232 25.057 90.9936C24.8855 91.364 24.6329 91.6973 24.2993 91.9936C23.9753 92.2899 23.5655 92.526 23.0699 92.7019C22.5743 92.8779 21.9977 92.9658 21.34 92.9658Z" fill="black"/>
<path d="M27.5877 92.8269C27.4828 92.8269 27.4018 92.7992 27.3446 92.7436C27.2875 92.6788 27.2589 92.6001 27.2589 92.5075V83.438C27.2589 83.3362 27.2875 83.2575 27.3446 83.2019C27.4018 83.1371 27.4828 83.1047 27.5877 83.1047H28.3168C28.4216 83.1047 28.5026 83.1371 28.5598 83.2019C28.6265 83.2575 28.6599 83.3362 28.6599 83.438V87.2714H33.5778V83.438C33.5778 83.3362 33.6064 83.2575 33.6636 83.2019C33.7303 83.1371 33.8113 83.1047 33.9066 83.1047H34.6357C34.7405 83.1047 34.8215 83.1371 34.8787 83.2019C34.9454 83.2575 34.9788 83.3362 34.9788 83.438V92.5075C34.9788 92.6001 34.9454 92.6788 34.8787 92.7436C34.8215 92.7992 34.7405 92.8269 34.6357 92.8269H33.9066C33.8113 92.8269 33.7303 92.7992 33.6636 92.7436C33.6064 92.6788 33.5778 92.6001 33.5778 92.5075V88.5214H28.6599V92.5075C28.6599 92.6001 28.6265 92.6788 28.5598 92.7436C28.5026 92.7992 28.4216 92.8269 28.3168 92.8269H27.5877Z" fill="black"/>
<path d="M37.7932 92.8269C37.6884 92.8269 37.6074 92.7992 37.5502 92.7436C37.493 92.6788 37.4644 92.6001 37.4644 92.5075V83.438C37.4644 83.3362 37.493 83.2575 37.5502 83.2019C37.6074 83.1371 37.6884 83.1047 37.7932 83.1047H38.4509C38.5652 83.1047 38.651 83.1325 38.7082 83.188C38.7654 83.2343 38.7987 83.2714 38.8083 83.2992L43.5546 90.3825V83.438C43.5546 83.3362 43.5832 83.2575 43.6404 83.2019C43.6976 83.1371 43.7786 83.1047 43.8834 83.1047H44.5696C44.6745 83.1047 44.7555 83.1371 44.8127 83.2019C44.8794 83.2575 44.9127 83.3362 44.9127 83.438V92.4936C44.9127 92.5862 44.8794 92.6649 44.8127 92.7297C44.7555 92.7945 44.6792 92.8269 44.5839 92.8269H43.8977C43.7929 92.8269 43.7119 92.7992 43.6547 92.7436C43.607 92.688 43.5737 92.651 43.5546 92.6325L38.8226 85.6186V92.5075C38.8226 92.6001 38.7892 92.6788 38.7225 92.7436C38.6653 92.7992 38.5843 92.8269 38.4795 92.8269H37.7932Z" fill="black"/>
<path d="M51.0074 92.9658C50.1877 92.9658 49.4872 92.8316 48.9058 92.563C48.3245 92.2853 47.8765 91.864 47.562 91.2992C47.2475 90.7251 47.0712 90.0075 47.033 89.1464C47.0235 88.739 47.0187 88.3501 47.0187 87.9797C47.0187 87.6001 47.0235 87.2066 47.033 86.7992C47.0712 85.9473 47.2522 85.239 47.5763 84.6742C47.9099 84.1001 48.3673 83.6742 48.9487 83.3964C49.5396 83.1093 50.2258 82.9658 51.0074 82.9658C51.7794 82.9658 52.456 83.1093 53.0374 83.3964C53.6283 83.6742 54.0906 84.1001 54.4242 84.6742C54.7577 85.239 54.9388 85.9473 54.9674 86.7992C54.9865 87.2066 54.996 87.6001 54.996 87.9797C54.996 88.3501 54.9865 88.739 54.9674 89.1464C54.9388 90.0075 54.7625 90.7251 54.4384 91.2992C54.1239 91.864 53.676 92.2853 53.0946 92.563C52.5132 92.8316 51.8175 92.9658 51.0074 92.9658ZM51.0074 91.7853C51.7317 91.7853 52.3226 91.5723 52.7801 91.1464C53.2471 90.7204 53.4997 90.0306 53.5378 89.0769C53.5568 88.6603 53.5664 88.2899 53.5664 87.9658C53.5664 87.6325 53.5568 87.2621 53.5378 86.8547C53.5187 86.2158 53.3948 85.6973 53.1661 85.2992C52.9469 84.901 52.6514 84.6093 52.2797 84.4242C51.908 84.239 51.4839 84.1464 51.0074 84.1464C50.5308 84.1464 50.1067 84.239 49.735 84.4242C49.3633 84.6093 49.0631 84.901 48.8344 85.2992C48.6151 85.6973 48.4912 86.2158 48.4627 86.8547C48.4531 87.2621 48.4484 87.6325 48.4484 87.9658C48.4484 88.2899 48.4531 88.6603 48.4627 89.0769C48.5008 90.0306 48.7533 90.7204 49.2203 91.1464C49.6874 91.5723 50.283 91.7853 51.0074 91.7853Z" fill="black"/>
<path d="M57.4086 92.8269C57.3037 92.8269 57.2227 92.7992 57.1656 92.7436C57.1084 92.6788 57.0798 92.6001 57.0798 92.5075V83.4242C57.0798 83.3316 57.1084 83.2575 57.1656 83.2019C57.2227 83.1371 57.3037 83.1047 57.4086 83.1047H58.1663C58.2616 83.1047 58.3378 83.1371 58.395 83.2019C58.4617 83.2575 58.4951 83.3316 58.4951 83.4242V91.6186H63.2414C63.3463 91.6186 63.4273 91.651 63.4845 91.7158C63.5512 91.7714 63.5845 91.8501 63.5845 91.9519V92.5075C63.5845 92.6001 63.5512 92.6788 63.4845 92.7436C63.4273 92.7992 63.3463 92.8269 63.2414 92.8269H57.4086Z" fill="black"/>
<path d="M68.5984 92.9658C67.7787 92.9658 67.0782 92.8316 66.4968 92.563C65.9154 92.2853 65.4675 91.864 65.153 91.2992C64.8385 90.7251 64.6621 90.0075 64.624 89.1464C64.6145 88.739 64.6097 88.3501 64.6097 87.9797C64.6097 87.6001 64.6145 87.2066 64.624 86.7992C64.6621 85.9473 64.8432 85.239 65.1673 84.6742C65.5008 84.1001 65.9583 83.6742 66.5397 83.3964C67.1306 83.1093 67.8168 82.9658 68.5984 82.9658C69.3703 82.9658 70.047 83.1093 70.6284 83.3964C71.2193 83.6742 71.6816 84.1001 72.0151 84.6742C72.3487 85.239 72.5298 85.9473 72.5584 86.7992C72.5774 87.2066 72.587 87.6001 72.587 87.9797C72.587 88.3501 72.5774 88.739 72.5584 89.1464C72.5298 90.0075 72.3535 90.7251 72.0294 91.2992C71.7149 91.864 71.267 92.2853 70.6856 92.563C70.1042 92.8316 69.4085 92.9658 68.5984 92.9658ZM68.5984 91.7853C69.3227 91.7853 69.9136 91.5723 70.3711 91.1464C70.8381 90.7204 71.0906 90.0306 71.1288 89.0769C71.1478 88.6603 71.1574 88.2899 71.1574 87.9658C71.1574 87.6325 71.1478 87.2621 71.1288 86.8547C71.1097 86.2158 70.9858 85.6973 70.7571 85.2992C70.5379 84.901 70.2424 84.6093 69.8707 84.4242C69.499 84.239 69.0749 84.1464 68.5984 84.1464C68.1218 84.1464 67.6977 84.239 67.326 84.4242C66.9543 84.6093 66.6541 84.901 66.4253 85.2992C66.2061 85.6973 66.0822 86.2158 66.0536 86.8547C66.0441 87.2621 66.0393 87.6325 66.0393 87.9658C66.0393 88.2899 66.0441 88.6603 66.0536 89.0769C66.0918 90.0306 66.3443 90.7204 66.8113 91.1464C67.2783 91.5723 67.874 91.7853 68.5984 91.7853Z" fill="black"/>
<path d="M78.3163 92.9658C77.468 92.9658 76.7485 92.813 76.1576 92.5075C75.5762 92.2019 75.1282 91.7714 74.8137 91.2158C74.5087 90.6603 74.3372 90.0075 74.2991 89.2575C74.2895 88.8501 74.2848 88.4195 74.2848 87.9658C74.2848 87.5029 74.2895 87.063 74.2991 86.6464C74.3372 85.8964 74.5087 85.2482 74.8137 84.7019C75.1282 84.1464 75.5809 83.7204 76.1719 83.4242C76.7628 83.1186 77.4776 82.9658 78.3163 82.9658C78.9834 82.9658 79.5648 83.0584 80.0604 83.2436C80.556 83.4288 80.9611 83.6649 81.2756 83.9519C81.5996 84.2297 81.8379 84.5214 81.9904 84.8269C82.1524 85.1325 82.2382 85.401 82.2477 85.6325C82.2572 85.7158 82.2334 85.7853 82.1762 85.8408C82.1191 85.8871 82.0428 85.9103 81.9475 85.9103H81.104C81.0087 85.9103 80.9372 85.8917 80.8896 85.8547C80.8515 85.8177 80.8133 85.7529 80.7752 85.6603C80.6894 85.4195 80.5465 85.1834 80.3463 84.9519C80.1557 84.7205 79.8936 84.5306 79.56 84.3825C79.236 84.2251 78.8214 84.1464 78.3163 84.1464C77.5538 84.1464 76.9391 84.3455 76.4721 84.7436C76.0146 85.1417 75.7668 85.7992 75.7287 86.7158C75.7001 87.5399 75.7001 88.364 75.7287 89.188C75.7668 90.114 76.0194 90.7806 76.4864 91.188C76.9534 91.5862 77.5633 91.7853 78.3163 91.7853C78.8214 91.7853 79.2694 91.6927 79.6601 91.5075C80.0604 91.3223 80.3749 91.0445 80.6037 90.6742C80.8324 90.2945 80.9468 89.813 80.9468 89.2297V88.6464H78.8023C78.707 88.6464 78.626 88.6186 78.5593 88.563C78.5021 88.4982 78.4735 88.4149 78.4735 88.313V87.8686C78.4735 87.7667 78.5021 87.688 78.5593 87.6325C78.626 87.5677 78.707 87.5353 78.8023 87.5353H82.0333C82.1381 87.5353 82.2191 87.5677 82.2763 87.6325C82.3335 87.688 82.3621 87.7667 82.3621 87.8686V89.2019C82.3621 89.9612 82.2001 90.6232 81.876 91.188C81.5615 91.7529 81.0993 92.1927 80.4893 92.5075C79.8793 92.813 79.155 92.9658 78.3163 92.9658Z" fill="black"/>
<path d="M84.7304 92.8269C84.6256 92.8269 84.5446 92.7992 84.4874 92.7436C84.4302 92.6788 84.4016 92.6001 84.4016 92.5075V83.4242C84.4016 83.3316 84.4302 83.2575 84.4874 83.2019C84.5446 83.1371 84.6256 83.1047 84.7304 83.1047H85.4881C85.593 83.1047 85.674 83.1371 85.7312 83.2019C85.7884 83.2575 85.817 83.3316 85.817 83.4242V92.5075C85.817 92.6001 85.7884 92.6788 85.7312 92.7436C85.674 92.7992 85.593 92.8269 85.4881 92.8269H84.7304Z" fill="black"/>
<path d="M88.6396 92.8269C88.5347 92.8269 88.4537 92.7992 88.3965 92.7436C88.3393 92.6788 88.3107 92.6001 88.3107 92.5075V83.438C88.3107 83.3362 88.3393 83.2575 88.3965 83.2019C88.4537 83.1371 88.5347 83.1047 88.6396 83.1047H94.5439C94.6487 83.1047 94.7297 83.1371 94.7869 83.2019C94.8441 83.2575 94.8727 83.3362 94.8727 83.438V83.9658C94.8727 84.0677 94.8441 84.1464 94.7869 84.2019C94.7297 84.2575 94.6487 84.2853 94.5439 84.2853H89.6832V87.3269H94.2294C94.3342 87.3269 94.4152 87.3593 94.4724 87.4242C94.5296 87.4797 94.5582 87.5584 94.5582 87.6603V88.1742C94.5582 88.2667 94.5296 88.3454 94.4724 88.4103C94.4152 88.4658 94.3342 88.4936 94.2294 88.4936H89.6832V91.6464H94.6582C94.7631 91.6464 94.8441 91.6742 94.9013 91.7297C94.9585 91.7853 94.9871 91.864 94.9871 91.9658V92.5075C94.9871 92.6001 94.9585 92.6788 94.9013 92.7436C94.8441 92.7992 94.7631 92.8269 94.6582 92.8269H88.6396Z" fill="black"/>
<path d="M100.197 92.9658C99.368 92.9658 98.6723 92.8408 98.11 92.5908C97.5477 92.3408 97.114 92.0214 96.809 91.6325C96.5136 91.2343 96.3563 90.8177 96.3373 90.3825C96.3373 90.3084 96.3659 90.2436 96.423 90.188C96.4898 90.1232 96.566 90.0908 96.6518 90.0908H97.3809C97.4952 90.0908 97.581 90.1186 97.6382 90.1742C97.6954 90.2297 97.7335 90.2945 97.7526 90.3686C97.8098 90.5908 97.9289 90.813 98.11 91.0353C98.2911 91.2482 98.5484 91.4288 98.882 91.5769C99.2251 91.7158 99.6635 91.7853 100.197 91.7853C101.017 91.7853 101.617 91.6464 101.999 91.3686C102.389 91.0816 102.585 90.7019 102.585 90.2297C102.585 89.9056 102.48 89.6464 102.27 89.4519C102.07 89.2482 101.76 89.0677 101.341 88.9103C100.922 88.7529 100.378 88.5816 99.7112 88.3964C99.0154 88.2019 98.4388 87.989 97.9813 87.7575C97.5238 87.526 97.1807 87.239 96.952 86.8964C96.7328 86.5538 96.6232 86.1186 96.6232 85.5908C96.6232 85.0908 96.7614 84.6464 97.0378 84.2575C97.3142 83.8593 97.7145 83.5445 98.2386 83.313C98.7628 83.0816 99.3919 82.9658 100.126 82.9658C100.717 82.9658 101.231 83.0445 101.67 83.2019C102.118 83.3501 102.489 83.5538 102.785 83.813C103.08 84.063 103.304 84.3362 103.457 84.6325C103.609 84.9195 103.69 85.2019 103.7 85.4797C103.7 85.5445 103.676 85.6093 103.628 85.6742C103.581 85.7297 103.504 85.7575 103.4 85.7575H102.642C102.575 85.7575 102.504 85.739 102.427 85.7019C102.361 85.6649 102.308 85.5955 102.27 85.4936C102.213 85.114 101.994 84.7945 101.613 84.5353C101.231 84.276 100.736 84.1464 100.126 84.1464C99.5062 84.1464 99.0011 84.2621 98.6103 84.4936C98.2291 84.7251 98.0385 85.0862 98.0385 85.5769C98.0385 85.8917 98.129 86.1556 98.3101 86.3686C98.4912 86.5723 98.7771 86.7529 99.1679 86.9103C99.5587 87.0677 100.069 87.2343 100.698 87.4103C101.46 87.614 102.084 87.8316 102.57 88.063C103.056 88.2853 103.414 88.5677 103.643 88.9103C103.881 89.2436 104 89.6742 104 90.2019C104 90.7853 103.843 91.2853 103.528 91.7019C103.214 92.1093 102.771 92.4242 102.199 92.6464C101.636 92.8593 100.969 92.9658 100.197 92.9658Z" fill="black"/>
</svg>
