<svg width="42" height="42" viewBox="0 0 42 42" fill="none" xmlns="http://www.w3.org/2000/svg">
<path d="M1.00007 21C0.992004 24.1056 1.7176 27.1691 3.11776 29.9412C4.77791 33.2629 7.33009 36.0568 10.4884 38.01C13.6468 39.9632 17.2865 40.9985 21 41C24.1052 41.0078 29.7405 39.8531 32.9126 37.304L41 41L37.5147 31.9552C40.251 29.2802 41.0089 24.1052 41 21C40.9986 17.2866 39.9635 13.647 38.0105 10.4886C36.0575 7.33031 33.2638 4.77807 29.9423 3.11776C27.1699 1.71743 24.106 0.991831 21 1.00007H19.8241C14.9195 1.27008 10.2868 3.34001 6.81339 6.81339C3.34 10.2868 1.27008 14.9195 1.00007 19.8241V21Z" stroke="#009985" stroke-width="2" stroke-linecap="round" stroke-linejoin="round"/>
<path d="M11.2597 23.3785C12.4909 23.3785 13.4889 22.3805 13.4889 21.1494C13.4889 19.9183 12.4909 18.9202 11.2597 18.9202C10.0286 18.9202 9.03058 19.9183 9.03058 21.1494C9.03058 22.3805 10.0286 23.3785 11.2597 23.3785Z" fill="#009985"/>
<path d="M21 23.3785C22.2312 23.3785 23.2292 22.3805 23.2292 21.1494C23.2292 19.9183 22.2312 18.9202 21 18.9202C19.7689 18.9202 18.7709 19.9183 18.7709 21.1494C18.7709 22.3805 19.7689 23.3785 21 23.3785Z" fill="#009985"/>
<path d="M30.7414 23.3785C31.9725 23.3785 32.9705 22.3805 32.9705 21.1494C32.9705 19.9183 31.9725 18.9202 30.7414 18.9202C29.5102 18.9202 28.5122 19.9183 28.5122 21.1494C28.5122 22.3805 29.5102 23.3785 30.7414 23.3785Z" fill="#009985"/>
</svg>
